<svg width="24" height="24" viewBox="0 0 24 24" fill="none" xmlns="http://www.w3.org/2000/svg">
<g clip-path="url(#clip0_1_2374)">
<path d="M12 0.75C14.225 0.75 16.4001 1.4098 18.2502 2.64597C20.1002 3.88213 21.5421 5.63914 22.3936 7.69481C23.2451 9.75048 23.4679 12.0125 23.0338 14.1948C22.5997 16.3771 21.5283 18.3816 19.9549 19.955C18.3816 21.5283 16.377 22.5998 14.1948 23.0338C12.0125 23.4679 9.75047 23.2451 7.6948 22.3936C5.63913 21.5422 3.88212 20.1002 2.64595 18.2502C1.40979 16.4001 0.749985 14.225 0.749985 12C0.753359 9.01735 1.93971 6.15783 4.04876 4.04878C6.15781 1.93972 9.01734 0.753375 12 0.75ZM8.78248 12.5602L13.0012 16.3102C13.704 16.9342 14.7352 15.8438 13.9987 15.1898L10.41 12L13.9987 8.81025C14.1473 8.67797 14.2373 8.49209 14.2488 8.29349C14.2603 8.09489 14.1925 7.89984 14.0602 7.75125C13.928 7.60266 13.7421 7.51271 13.5435 7.50117C13.3449 7.48964 13.1498 7.55747 13.0012 7.68975L8.78248 11.4398C8.70498 11.511 8.64311 11.5977 8.60079 11.6941C8.55847 11.7905 8.53662 11.8947 8.53662 12C8.53662 12.1053 8.55847 12.2095 8.60079 12.3059C8.64311 12.4023 8.70498 12.489 8.78248 12.5602Z" fill="#FFCC00"/>
</g>
<defs>
<clipPath id="clip0_1_2374">
<rect width="24" height="24" fill="white"/>
</clipPath>
</defs>
</svg>
