<svg width="24" height="24" viewBox="0 0 24 24" fill="none" xmlns="http://www.w3.org/2000/svg">
<g clip-path="url(#clip0_1_2375)">
<path d="M12 0.75C9.77496 0.75 7.59989 1.4098 5.74983 2.64597C3.89978 3.88213 2.45784 5.63914 1.60635 7.69481C0.754867 9.75048 0.532079 12.0125 0.966163 14.1948C1.40025 16.3771 2.47171 18.3816 4.04505 19.955C5.61839 21.5283 7.62295 22.5998 9.80523 23.0338C11.9875 23.4679 14.2495 23.2451 16.3052 22.3936C18.3609 21.5422 20.1179 20.1002 21.354 18.2502C22.5902 16.4001 23.25 14.225 23.25 12C23.2466 9.01735 22.0603 6.15783 19.9512 4.04878C17.8422 1.93972 14.9826 0.753375 12 0.75ZM15.2175 12.5602L10.9987 16.3102C10.296 16.9342 9.26475 15.8438 10.0012 15.1898L13.59 12L10.0012 8.81025C9.85266 8.67797 9.7627 8.49209 9.75117 8.29349C9.73964 8.09489 9.80747 7.89984 9.93975 7.75125C10.072 7.60266 10.2579 7.51271 10.4565 7.50117C10.6551 7.48964 10.8502 7.55747 10.9987 7.68975L15.2175 11.4398C15.295 11.511 15.3569 11.5977 15.3992 11.6941C15.4415 11.7905 15.4634 11.8947 15.4634 12C15.4634 12.1053 15.4415 12.2095 15.3992 12.3059C15.3569 12.4023 15.295 12.489 15.2175 12.5602Z" fill="#FFCC00"/>
</g>
<defs>
<clipPath id="clip0_1_2375">
<rect width="24" height="24" fill="white"/>
</clipPath>
</defs>
</svg>
