<svg width="14" height="14" viewBox="0 0 14 14" fill="none" xmlns="http://www.w3.org/2000/svg">
<path d="M11.4844 4.2656C11.6059 4.38713 11.6667 4.536 11.6667 4.71222C11.6667 4.88236 11.6059 5.02819 11.4844 5.14972L7.34635 9.27863C7.24913 9.37585 7.13064 9.42446 6.99088 9.42446C6.8572 9.42446 6.74175 9.37585 6.64453 9.27863L2.51562 5.14972C2.39409 5.02819 2.33333 4.88236 2.33333 4.71222C2.33333 4.536 2.39409 4.38713 2.51562 4.2656C2.63715 4.14408 2.78298 4.08331 2.95312 4.08331C3.12934 4.08331 3.27821 4.14408 3.39973 4.2656L7 7.86587L10.6094 4.2656C10.7309 4.14408 10.8767 4.08331 11.0469 4.08331C11.217 4.08331 11.3628 4.14408 11.4844 4.2656Z" fill="black"/>
</svg>
