<svg width="28" height="20" viewBox="0 0 28 20" fill="none" xmlns="http://www.w3.org/2000/svg">
<rect width="28" height="20" rx="2" fill="white"/>
<mask id="mask0_2_6458" style="mask-type:luminance" maskUnits="userSpaceOnUse" x="0" y="0" width="28" height="20">
<rect width="28" height="20" rx="2" fill="white"/>
</mask>
<g mask="url(#mask0_2_6458)">
<rect width="28" height="20" fill="#0A17A7"/>
<path fill-rule="evenodd" clip-rule="evenodd" d="M6.67403 13.3332L-2.77344 19.7056L-1.28226 21.9163L10.6667 13.8567V21.3332H17.3333V13.8571L29.2817 21.9164L30.7729 19.7056L21.3254 13.3332H28V6.6665H21.3265L30.7739 0.294202L29.2827 -1.91656L17.3333 6.14337V-1.3335H10.6667V6.14378L-1.2832 -1.91651L-2.77438 0.294258L6.67285 6.6665H7.15256e-07V13.3332H6.67403Z" fill="white"/>
<path d="M18.668 6.33219L31.3333 -2" stroke="#DB1F35" stroke-width="0.666667" stroke-linecap="round"/>
<path d="M20.0137 13.6978L31.3675 21.3506" stroke="#DB1F35" stroke-width="0.666667" stroke-linecap="round"/>
<path d="M8.00513 6.31055L-3.83789 -1.6709" stroke="#DB1F35" stroke-width="0.666667" stroke-linecap="round"/>
<path d="M9.28963 13.605L-3.83789 22.3105" stroke="#DB1F35" stroke-width="0.666667" stroke-linecap="round"/>
<path fill-rule="evenodd" clip-rule="evenodd" d="M0 12H12V20H16V12H28V8H16V0H12V8H0V12Z" fill="#E6273E"/>
</g>
</svg>
