<svg width="121" height="44" viewBox="0 0 121 44" fill="none" xmlns="http://www.w3.org/2000/svg">
<g clip-path="url(#clip0_2_3873)">
<mask id="mask0_2_3873" style="mask-type:luminance" maskUnits="userSpaceOnUse" x="14" y="17" width="30" height="27">
<path d="M28.2091 26.9986C26.1005 26.0308 24.6899 23.9875 24.5325 21.6727C24.4295 20.1584 24.8737 18.6866 25.7412 17.5013L15.1537 27.4119C13.7569 29.163 14.7644 33.219 17.364 35.5096C17.364 35.5096 19.9874 38.1814 25.2343 43.5247H43.9911C43.9911 43.5247 38.7304 38.0161 28.2089 26.9989" fill="white"/>
</mask>
<g mask="url(#mask0_2_3873)">
<path d="M43.9929 17.5012H13.7584V43.5243H43.9929V17.5012Z" fill="url(#paint0_linear_2_3873)"/>
</g>
<mask id="mask1_2_3873" style="mask-type:luminance" maskUnits="userSpaceOnUse" x="0" y="0" width="45" height="28">
<path d="M24.5327 21.6731C24.6901 23.9879 26.1007 26.0313 28.2093 26.9991C32.9825 27.9061 37.8742 26.1715 41.0093 22.4596C44.1442 18.7478 45.0364 13.6348 43.3433 9.08068C41.6504 4.52656 37.6351 1.23765 32.8366 0.475098H0.859131L14.8234 14.109H29.3662L27.4545 15.8985L25.7415 17.502C24.8739 18.6873 24.4298 20.1591 24.5327 21.6734" fill="white"/>
</mask>
<g mask="url(#mask1_2_3873)">
<path d="M45.0364 0.475098H0.859131V27.9064H45.0364V0.475098Z" fill="url(#paint1_linear_2_3873)"/>
</g>
<path fill-rule="evenodd" clip-rule="evenodd" d="M0.859131 0.475098C30.8206 4.24001 43.1523 12.4793 37.8539 25.1931C39.0247 24.4621 40.0923 23.5455 41.0093 22.4596C44.1442 18.7478 45.0364 13.6348 43.3433 9.08068C41.6504 4.52656 37.6351 1.23765 32.8366 0.475098H0.859131Z" fill="#204E57"/>
<path fill-rule="evenodd" clip-rule="evenodd" d="M37.1808 43.5247C25.8501 37.2931 20.2724 30.2704 20.4481 22.4567L15.1543 27.4119C13.7574 29.163 14.765 33.219 17.3645 35.5096C17.3645 35.5096 19.9879 38.1814 25.2348 43.5247H37.1806" fill="#204E57"/>
</g>
<path d="M57.9514 10.1446H61.4954C61.899 10.1446 62.3404 10.1614 62.8197 10.195C63.3074 10.2287 63.7908 10.3128 64.2701 10.4473C64.7578 10.5734 65.2244 10.7668 65.6701 11.0274C66.1241 11.2881 66.5235 11.6454 66.8682 12.0995C67.2214 12.5535 67.503 13.1253 67.7132 13.8148C67.9234 14.4958 68.0285 15.324 68.0285 16.2994V16.8417C68.0285 18.4813 67.7931 19.8182 67.3223 20.8524C66.8514 21.8782 66.1577 22.6181 65.2412 23.0721L68.697 31.6863H65.2412L62.3783 23.6271H61.1549V31.6863H57.9514V10.1446ZM61.6467 21.2686C62.2185 21.2686 62.702 21.2055 63.0972 21.0794C63.4923 20.9533 63.8118 20.7431 64.0557 20.4488C64.2995 20.1461 64.4761 19.7509 64.5854 19.2632C64.6947 18.7672 64.7494 18.1576 64.7494 17.4345V15.7318C64.7494 15.1769 64.6989 14.6976 64.598 14.294C64.4971 13.8904 64.3247 13.5583 64.0809 13.2977C63.8455 13.037 63.5302 12.8436 63.135 12.7175C62.7398 12.5914 62.2437 12.5283 61.6467 12.5283H61.1549V21.2686H61.6467Z" fill="#185259"/>
<path d="M71.169 10.1446H79.1525V12.7175H74.4356V19.1623H78.0805V21.7352H74.4356V29.1134H79.2787V31.6863H71.169V10.1446Z" fill="#185259"/>
<path d="M81.6372 10.1446H84.9037V31.6863H81.6372V10.1446Z" fill="#185259"/>
<path d="M88.5991 10.1446H91.9035C92.3912 10.1446 92.8957 10.1614 93.417 10.195C93.9383 10.2287 94.447 10.3001 94.9431 10.4094C95.4392 10.5188 95.91 10.6827 96.3556 10.9013C96.8013 11.1115 97.1881 11.3974 97.516 11.759C97.8523 12.1205 98.1172 12.5703 98.3105 13.1085C98.5123 13.6382 98.6132 14.2772 98.6132 15.0255V16.0723C98.6132 16.6441 98.5292 17.1696 98.361 17.6489C98.2012 18.1281 97.9868 18.5528 97.7178 18.9227C97.4487 19.2843 97.1418 19.587 96.7971 19.8308C96.4523 20.0662 96.0992 20.226 95.7376 20.3101V20.411C96.8055 20.6043 97.6085 21.113 98.1466 21.937C98.6931 22.7526 98.9664 23.7995 98.9664 25.0775V26.1748C98.9664 26.9567 98.8781 27.6378 98.7015 28.2179C98.5334 28.7897 98.2937 29.2816 97.9826 29.6936C97.6715 30.0972 97.3016 30.4293 96.8727 30.6899C96.4439 30.9506 95.9731 31.1566 95.4602 31.3079C94.9473 31.4509 94.4007 31.5518 93.8206 31.6106C93.2404 31.6611 92.6434 31.6863 92.0296 31.6863H88.5991V10.1446ZM92.4332 19.3641C92.8705 19.3641 93.2699 19.3137 93.6314 19.2128C93.993 19.1035 94.2999 18.9395 94.5521 18.7209C94.8127 18.4939 95.0103 18.2038 95.1449 17.8507C95.2878 17.4891 95.3593 17.0561 95.3593 16.5516V15.6688C95.3593 15.1643 95.3088 14.7186 95.2079 14.3319C95.107 13.9451 94.9389 13.6172 94.7034 13.3481C94.4764 13.079 94.1737 12.8772 93.7954 12.7427C93.4254 12.5998 92.9714 12.5283 92.4332 12.5283H91.8026V19.3641H92.4332ZM92.7359 29.4161C93.1732 29.4161 93.5683 29.3615 93.9215 29.2521C94.283 29.1344 94.5899 28.9579 94.8422 28.7224C95.1028 28.4786 95.3004 28.1717 95.435 27.8017C95.5779 27.4318 95.6494 26.9946 95.6494 26.4901V24.8126C95.6494 24.3081 95.5989 23.8625 95.498 23.4757C95.3971 23.0806 95.229 22.7526 94.9935 22.492C94.7665 22.2229 94.468 22.0211 94.0981 21.8866C93.7281 21.7437 93.2741 21.6722 92.7359 21.6722H91.8026V29.4161H92.7359Z" fill="#185259"/>
<path d="M101.817 10.1446H109.8V12.7175H105.083V19.1623H108.728V21.7352H105.083V29.1134H109.926V31.6863H101.817V10.1446Z" fill="#185259"/>
<path d="M114.278 12.7175H110.809V10.1446H121V12.7175H117.544V31.6863H114.278V12.7175Z" fill="#185259"/>
<defs>
<linearGradient id="paint0_linear_2_3873" x1="41.077" y1="35.3152" x2="12.5018" y2="24.0681" gradientUnits="userSpaceOnUse">
<stop stop-color="#297180"/>
<stop offset="1" stop-color="#F0C419"/>
</linearGradient>
<linearGradient id="paint1_linear_2_3873" x1="37.7902" y1="22.5439" x2="0.937484" y2="1.80354" gradientUnits="userSpaceOnUse">
<stop stop-color="#5093A0"/>
<stop offset="1" stop-color="#D0B034"/>
</linearGradient>
<clipPath id="clip0_2_3873">
<rect width="44.1773" height="43.0498" fill="white" transform="translate(0.859131 0.475098)"/>
</clipPath>
</defs>
</svg>
