<svg width="358" height="358" viewBox="0 0 358 358" fill="none" xmlns="http://www.w3.org/2000/svg">
<g clip-path="url(#clip0_2_2277)">
<path d="M328.362 214.677L328.367 214.677V180.312L0 223.759V258.104L0.00489453 258.104C-0.00279687 259.164 0.764246 260.285 2.27805 261.159L121.34 329.899C124.095 331.489 128.26 331.662 130.646 330.285L200.1 290.185L232.762 269.491L257.659 256.953L326.76 217.058C327.859 216.423 328.382 215.569 328.362 214.677Z" fill="url(#paint0_linear_2_2277)"/>
<path d="M326.76 214.289L130.646 327.516C128.26 328.893 124.095 328.72 121.34 327.13L2.27805 258.39C0.764246 257.516 -0.00279687 256.396 0.00489453 255.335L0 255.336V258.699L0.00489453 258.698C-0.00279687 259.759 0.764246 260.879 2.27805 261.753L121.34 330.494C124.095 332.084 128.26 332.257 130.646 330.88L200.1 290.78L201.657 287.875L255.726 256.962L257.659 257.549L326.76 217.654C327.859 217.019 328.381 216.165 328.362 215.273L328.367 215.272V211.91L328.362 211.911C328.382 212.801 327.859 213.654 326.76 214.289Z" fill="url(#paint1_linear_2_2277)"/>
<path d="M326.76 207.614L130.646 320.841C128.26 322.218 124.095 322.045 121.34 320.455L2.27805 251.715C0.764246 250.841 -0.00279687 249.721 0.00489453 248.66H0V252.022L0.00489453 252.022C-0.00279687 253.083 0.764246 254.203 2.27805 255.077L121.34 323.818C124.095 325.408 128.26 325.58 130.646 324.204L326.76 210.977C327.859 210.342 328.381 209.488 328.362 208.596L328.367 208.595V205.232L328.362 205.233C328.382 206.125 327.859 206.98 326.76 207.614Z" fill="url(#paint2_linear_2_2277)"/>
<path d="M326.76 201.012L130.646 314.239C128.26 315.616 124.095 315.443 121.34 313.853L2.27805 245.112C0.764246 244.238 -0.00279687 243.118 0.00489453 242.057L0 242.058V245.421L0.00489453 245.42C-0.00279687 246.481 0.764246 247.601 2.27805 248.475L121.34 317.216C124.095 318.806 128.26 318.979 130.646 317.602L326.76 204.375C327.859 203.74 328.381 202.885 328.362 201.994L328.367 201.993V198.631L328.362 198.631C328.382 199.523 327.859 200.377 326.76 201.012Z" fill="url(#paint3_linear_2_2277)"/>
<path d="M326.76 194.336L130.646 307.562C128.26 308.939 124.095 308.766 121.34 307.176L2.27805 238.436C0.764246 237.562 -0.00279687 236.442 0.00489453 235.381L0 235.382V238.744L0.00489453 238.743C-0.00279687 239.804 0.764246 240.924 2.27805 241.798L121.34 310.539C124.095 312.129 128.26 312.302 130.646 310.925L326.76 197.699C327.859 197.064 328.381 196.209 328.362 195.318L328.367 195.317V191.954L328.362 191.955C328.382 192.847 327.859 193.701 326.76 194.336Z" fill="url(#paint4_linear_2_2277)"/>
<path d="M326.76 187.511L130.646 300.738C128.26 302.115 124.095 301.942 121.34 300.352L2.27805 231.612C0.764246 230.738 -0.00279687 229.617 0.00489453 228.557H0V231.919L0.00489453 231.919C-0.00279687 232.979 0.764246 234.099 2.27805 234.973L121.34 303.714C124.095 305.304 128.26 305.477 130.646 304.1L326.76 190.874C327.859 190.239 328.381 189.384 328.362 188.493L328.367 188.492V185.13L328.362 185.13C328.382 186.022 327.859 186.876 326.76 187.511Z" fill="url(#paint5_linear_2_2277)"/>
<path d="M2.27805 261.754L75.5981 304.085L105.878 286.603L43.2208 218.041L0 223.76V258.699L0.00489453 258.698C-0.00279687 259.759 0.764246 260.879 2.27805 261.754Z" fill="url(#paint6_linear_2_2277)"/>
<path d="M197.406 109.081L3.1518 221.233C0.789142 222.597 1.08561 224.979 3.81396 226.554L121.746 294.643C124.474 296.218 128.601 296.389 130.963 295.025L325.217 182.872C327.579 181.508 327.283 179.126 324.555 177.551L206.622 109.462C203.895 107.888 199.768 107.717 197.406 109.081Z" fill="url(#paint7_linear_2_2277)"/>
<path d="M197.724 108.19L128.497 148.158L106.622 164.436L70.7747 181.484L1.61012 221.416C-0.774916 222.793 -0.47565 225.199 2.27787 226.789L121.34 295.53C124.094 297.12 128.26 297.293 130.645 295.916L326.759 182.69C329.144 181.313 328.845 178.907 326.091 177.317L207.029 108.577C204.275 106.986 200.109 106.813 197.724 108.19ZM269.044 166.025C258.691 172.002 259.99 182.442 271.943 189.344C276.236 191.822 281.32 193.503 286.552 194.368L150.874 272.701C149.375 269.681 146.464 266.745 142.172 264.267C130.218 257.366 112.135 256.616 101.782 262.593C98.0645 264.74 95.8578 267.463 95.0992 270.39L45.8224 241.94C50.8918 241.502 55.608 240.228 59.3257 238.082C69.6784 232.105 68.3799 221.665 56.4261 214.763C52.1336 212.284 47.0495 210.604 41.818 209.739L177.496 131.405C178.994 134.426 181.905 137.361 186.198 139.839C198.151 146.741 216.235 147.491 226.587 141.513C230.305 139.367 232.512 136.644 233.27 133.717L282.547 162.167C277.478 162.605 272.762 163.878 269.044 166.025Z" fill="url(#paint8_linear_2_2277)"/>
<path d="M201.979 179.751C177.612 165.682 140.75 164.155 119.647 176.338C98.544 188.522 101.191 209.804 125.558 223.873C149.926 237.941 186.788 239.47 207.891 227.286C228.994 215.102 226.347 193.82 201.979 179.751Z" fill="url(#paint9_linear_2_2277)"/>
<path d="M200.1 255.815V290.78L257.659 257.548V222.584L228.879 234.515L200.1 255.815Z" fill="url(#paint10_linear_2_2277)"/>
<path d="M128.497 148.159L70.7754 181.484L200.1 255.816L257.659 222.584L128.497 148.159Z" fill="url(#paint11_linear_2_2277)"/>
<path d="M191.234 213.099L197.666 216.812C199.932 218.12 199.932 219.732 197.666 221.041C195.916 222.051 191.543 222.051 189.794 221.041L183.57 217.448C180.77 218.62 177.657 219.571 174.401 220.274C168.791 221.485 161.278 220.477 159.779 218.306L159.754 218.27C158.293 216.154 161.309 213.973 167.101 212.98C171.719 212.189 175.817 210.954 178.241 209.555C181.326 207.774 181.949 205.891 179.508 204.481C171.658 199.948 155.324 214.863 138.963 205.417C131.64 201.188 131.13 195.617 137.058 190.595L131.022 187.11C128.756 185.801 128.756 184.189 131.022 182.88C132.772 181.87 137.145 181.87 138.894 182.88L144.59 186.168C145.987 185.543 147.457 184.978 148.971 184.475C154.278 182.714 163.333 183.579 165.083 186.006C166.48 187.943 164.081 189.952 159.137 191.071C155.209 191.961 151.772 193.067 149.814 194.198C147.3 195.649 146.699 197.215 148.81 198.434C156.463 202.853 173.192 188.166 189.817 197.765C197.933 202.452 197.311 208.295 191.234 213.099Z" fill="white"/>
<path d="M128.497 148.159L70.7754 181.484L200.1 255.816L257.659 222.584L128.497 148.159Z" fill="url(#paint12_linear_2_2277)"/>
<path d="M328.367 180.312L298.631 184.247L146.775 286.602C146.775 291.154 151.703 293.999 155.646 291.723L328.367 192.002V180.312Z" fill="url(#paint13_linear_2_2277)"/>
<path d="M146.776 286.603L150.012 284.734L72.8017 180.314L1.61005 221.417C-0.774981 222.793 -0.475715 225.199 2.27851 226.789L105.878 286.602H146.776V286.603Z" fill="url(#paint14_linear_2_2277)"/>
<path d="M357.993 169.471L357.998 169.47V135.105L29.6308 178.552V212.897L29.6357 212.896C29.628 213.957 30.395 215.077 31.9088 215.951L150.971 284.691C153.725 286.281 157.891 286.454 160.276 285.077L229.73 244.978L262.392 224.284L287.289 211.746L356.39 171.851C357.49 171.217 358.013 170.362 357.993 169.471Z" fill="url(#paint15_linear_2_2277)"/>
<path d="M356.392 169.083L160.278 282.31C157.893 283.686 153.727 283.514 150.972 281.924L31.9109 213.183C30.3971 212.309 29.6293 211.189 29.6377 210.129L29.6328 210.129V213.492L29.6377 213.492C29.63 214.552 30.3971 215.673 31.9109 216.547L150.973 285.287C153.727 286.877 157.893 287.05 160.278 285.673L229.732 245.573L231.29 242.668L285.359 211.755L287.291 212.342L356.392 172.446C357.492 171.811 358.015 170.957 357.995 170.065L358 170.065V166.702L357.995 166.703C358.014 167.594 357.492 168.448 356.392 169.083Z" fill="url(#paint16_linear_2_2277)"/>
<path d="M356.392 162.407L160.278 275.634C157.893 277.01 153.727 276.838 150.972 275.248L31.9109 206.507C30.3971 205.633 29.6293 204.512 29.6377 203.452L29.6328 203.452V206.816L29.6377 206.815C29.63 207.876 30.3971 208.996 31.9109 209.87L150.973 278.611C153.727 280.201 157.893 280.374 160.278 278.997L356.392 165.77C357.492 165.135 358.015 164.281 357.995 163.389L358 163.389V160.025L357.995 160.026C358.014 160.918 357.492 161.772 356.392 162.407Z" fill="url(#paint17_linear_2_2277)"/>
<path d="M356.392 155.805L160.278 269.031C157.893 270.408 153.727 270.235 150.972 268.645L31.9109 199.905C30.3971 199.031 29.6293 197.91 29.6377 196.85L29.6328 196.851V200.214L29.6377 200.213C29.63 201.274 30.3971 202.394 31.9109 203.268L150.973 272.009C153.727 273.599 157.893 273.771 160.278 272.395L356.392 159.168C357.492 158.533 358.015 157.679 357.995 156.787L358 156.786V153.424L357.995 153.425C358.014 154.316 357.492 155.17 356.392 155.805Z" fill="url(#paint18_linear_2_2277)"/>
<path d="M356.392 149.128L160.278 262.355C157.893 263.731 153.727 263.559 150.972 261.969L31.9109 193.228C30.3971 192.354 29.6293 191.234 29.6377 190.173L29.6328 190.174V193.537L29.6377 193.537C29.63 194.597 30.3971 195.718 31.9109 196.592L150.973 265.332C153.727 266.923 157.893 267.095 160.278 265.718L356.392 152.492C357.492 151.857 358.015 151.003 357.995 150.111L358 150.11V146.747L357.995 146.748C358.014 147.639 357.492 148.493 356.392 149.128Z" fill="url(#paint19_linear_2_2277)"/>
<path d="M356.392 142.304L160.278 255.53C157.893 256.906 153.727 256.734 150.972 255.144L31.9109 186.403C30.3971 185.529 29.6293 184.409 29.6377 183.349L29.6328 183.349V186.712L29.6377 186.712C29.63 187.772 30.3971 188.893 31.9109 189.767L150.973 258.508C153.727 260.098 157.893 260.27 160.278 258.894L356.392 145.667C357.492 145.032 358.015 144.178 357.995 143.286L358 143.285V139.923L357.995 139.924C358.014 140.814 357.492 141.669 356.392 142.304Z" fill="url(#paint20_linear_2_2277)"/>
<path d="M29.6308 213.492L29.6357 213.491C29.628 214.552 30.395 215.672 31.9088 216.546L115.816 264.99L146.096 247.508L41.479 176.984L29.6308 178.552V213.492Z" fill="url(#paint21_linear_2_2277)"/>
<path d="M227.038 63.8737L32.7845 176.026C30.4218 177.39 30.7183 179.773 33.4459 181.348L151.378 249.437C154.106 251.012 158.233 251.182 160.595 249.819L354.849 137.666C357.211 136.302 356.915 133.92 354.187 132.345L236.255 64.2562C233.527 62.6808 229.401 62.5102 227.038 63.8737Z" fill="url(#paint22_linear_2_2277)"/>
<path d="M227.355 62.9831L158.127 102.951L136.253 119.229L100.406 136.277L31.2409 176.21C28.8559 177.586 29.1551 179.992 31.9086 181.582L150.971 250.323C153.725 251.913 157.891 252.085 160.276 250.709L356.39 137.482C358.775 136.105 358.476 133.7 355.722 132.109L236.659 63.369C233.906 61.779 229.74 61.6063 227.355 62.9831ZM298.675 120.818C288.322 126.794 289.62 137.234 301.574 144.136C305.867 146.615 310.951 148.295 316.182 149.16L180.504 227.494C179.005 224.473 176.095 221.539 171.802 219.06C159.848 212.158 141.765 211.408 131.412 217.386C127.695 219.533 125.488 222.255 124.729 225.182L75.4525 196.732C80.5218 196.294 85.2381 195.02 88.9558 192.874C99.3084 186.897 98.01 176.456 86.0561 169.555C81.7636 167.076 76.6796 165.396 71.4481 164.531L207.127 86.1978C208.625 89.2184 211.536 92.1538 215.828 94.6318C227.782 101.533 245.865 102.283 256.218 96.3057C259.936 94.1591 262.143 91.4364 262.901 88.5094L312.178 116.959C307.109 117.397 302.392 118.672 298.675 120.818Z" fill="url(#paint23_linear_2_2277)"/>
<path d="M231.61 134.545C207.242 120.476 170.381 118.948 149.278 131.132C128.175 143.316 130.821 164.598 155.189 178.666C179.557 192.734 216.418 194.263 237.521 182.079C258.625 169.895 255.978 148.613 231.61 134.545Z" fill="url(#paint24_linear_2_2277)"/>
<path d="M229.73 210.609V245.573L287.289 212.341V177.377L258.51 189.308L229.73 210.609Z" fill="url(#paint25_linear_2_2277)"/>
<path d="M158.128 102.952L100.406 136.278L229.731 210.609L287.29 177.378L158.128 102.952Z" fill="url(#paint26_linear_2_2277)"/>
<path d="M220.865 167.892L227.296 171.605C229.563 172.914 229.563 174.526 227.296 175.835C225.547 176.845 221.173 176.845 219.423 175.835L213.2 172.241C210.399 173.413 207.286 174.364 204.03 175.067C198.42 176.279 190.908 175.27 189.41 173.099L189.384 173.063C187.924 170.947 190.939 168.766 196.732 167.773C201.349 166.982 205.448 165.748 207.871 164.348C210.956 162.567 211.58 160.684 209.139 159.274C201.288 154.741 184.955 169.656 168.593 160.21C161.27 155.982 160.76 150.41 166.688 145.388L160.653 141.903C158.387 140.595 158.387 138.982 160.653 137.673C162.402 136.664 166.776 136.664 168.525 137.673L174.22 140.962C175.618 140.337 177.087 139.771 178.601 139.268C183.908 137.507 192.963 138.372 194.714 140.799C196.111 142.736 193.711 144.745 188.767 145.865C184.839 146.755 181.403 147.861 179.444 148.992C176.931 150.443 176.329 152.009 178.441 153.227C186.094 157.646 202.823 142.959 219.448 152.558C227.563 157.244 226.942 163.088 220.865 167.892Z" fill="white"/>
<path d="M339.827 133.607L339.832 133.607V99.2422L11.4648 142.69V177.035L11.4697 177.034C11.462 178.095 12.2291 179.215 13.7429 180.089L132.805 248.829C135.559 250.419 139.725 250.592 142.11 249.215L211.564 209.115L244.226 188.421L269.123 175.884L338.224 135.988C339.324 135.353 339.846 134.499 339.827 133.607Z" fill="url(#paint27_linear_2_2277)"/>
<path d="M338.224 133.22L142.11 246.447C139.725 247.824 135.559 247.651 132.805 246.061L13.7429 177.321C12.2291 176.447 11.4613 175.326 11.4697 174.266L11.4648 174.267V177.63L11.4697 177.629C11.462 178.69 12.2291 179.81 13.7429 180.684L132.805 249.424C135.559 251.014 139.725 251.187 142.11 249.81L211.564 209.711L213.122 206.805L267.191 175.892L269.123 176.479L338.224 136.584C339.324 135.949 339.846 135.094 339.827 134.203L339.832 134.202V130.839L339.827 130.84C339.846 131.731 339.324 132.586 338.224 133.22Z" fill="url(#paint28_linear_2_2277)"/>
<path d="M338.224 126.544L142.11 239.771C139.725 241.148 135.559 240.975 132.805 239.385L13.7429 170.644C12.2291 169.77 11.4613 168.65 11.4697 167.589L11.4648 167.59V170.953L11.4697 170.952C11.462 172.013 12.2291 173.133 13.7429 174.007L132.805 242.748C135.559 244.338 139.725 244.51 142.11 243.133L338.224 129.907C339.324 129.272 339.846 128.418 339.827 127.526L339.832 127.525V124.162L339.827 124.163C339.846 125.055 339.324 125.909 338.224 126.544Z" fill="url(#paint29_linear_2_2277)"/>
<path d="M338.224 119.942L142.11 233.168C139.725 234.545 135.559 234.372 132.805 232.782L13.7429 164.042C12.2291 163.168 11.4613 162.047 11.4697 160.987L11.4648 160.987V164.351L11.4697 164.35C11.462 165.411 12.2291 166.531 13.7429 167.405L132.805 236.146C135.559 237.736 139.725 237.909 142.11 236.532L338.224 123.305C339.324 122.67 339.846 121.816 339.827 120.924L339.832 120.924V117.56L339.827 117.561C339.846 118.453 339.324 119.306 338.224 119.942Z" fill="url(#paint30_linear_2_2277)"/>
<path d="M338.224 113.265L142.11 226.491C139.725 227.868 135.559 227.695 132.805 226.105L13.7429 157.365C12.2291 156.491 11.4613 155.371 11.4697 154.31L11.4648 154.311V157.674L11.4697 157.673C11.462 158.734 12.2291 159.854 13.7429 160.728L132.805 229.468C135.559 231.059 139.725 231.231 142.11 229.854L338.224 116.628C339.324 115.993 339.846 115.139 339.827 114.247L339.832 114.246V110.884L339.827 110.884C339.846 111.776 339.324 112.63 338.224 113.265Z" fill="url(#paint31_linear_2_2277)"/>
<path d="M338.224 106.441L142.11 219.667C139.725 221.044 135.559 220.871 132.805 219.281L13.7429 150.541C12.2291 149.667 11.4613 148.547 11.4697 147.486L11.4648 147.487V150.85L11.4697 150.849C11.462 151.91 12.2291 153.03 13.7429 153.904L132.805 222.645C135.559 224.235 139.725 224.408 142.11 223.031L338.224 109.804C339.324 109.169 339.846 108.315 339.827 107.424L339.832 107.423V104.06L339.827 104.06C339.846 104.952 339.324 105.806 338.224 106.441Z" fill="url(#paint32_linear_2_2277)"/>
<path d="M208.873 28.0108L14.6185 140.163C12.2558 141.527 12.5523 143.909 15.2799 145.484L133.212 213.573C135.94 215.148 140.067 215.319 142.429 213.955L336.684 101.803C339.046 100.439 338.75 98.0564 336.022 96.4818L218.089 28.3925C215.361 26.8179 211.235 26.6466 208.873 28.0108Z" fill="url(#paint33_linear_2_2277)"/>
<path d="M209.189 27.1198L139.961 67.0879L118.087 83.3657L82.2396 100.414L13.075 140.346C10.6899 141.723 10.9892 144.129 13.7427 145.719L132.805 214.459C135.559 216.049 139.725 216.222 142.11 214.845L338.224 101.619C340.609 100.242 340.31 97.8367 337.556 96.246L218.494 27.5058C215.741 25.9158 211.575 25.7431 209.189 27.1198ZM280.509 84.9543C270.157 90.9312 271.455 101.371 283.409 108.273C287.702 110.752 292.786 112.432 298.017 113.297L162.339 191.631C160.841 188.611 157.93 185.676 153.638 183.197C141.684 176.295 123.6 175.546 113.248 181.523C109.53 183.67 107.323 186.393 106.565 189.32L57.2873 160.869C62.3566 160.431 67.0728 159.157 70.7906 157.011C81.1432 151.034 79.8448 140.593 67.8909 133.692C63.5984 131.213 58.5144 129.533 53.2828 128.668L188.961 50.3346C190.46 53.3552 193.371 56.2898 197.663 58.7686C209.617 65.6699 227.7 66.4194 238.053 60.4425C241.771 58.2959 243.977 55.5731 244.736 52.6462L294.013 81.096C288.943 81.5344 284.227 82.8084 280.509 84.9543Z" fill="url(#paint34_linear_2_2277)"/>
<path d="M213.444 98.6814C189.077 84.6124 152.215 83.0846 131.112 95.2685C110.009 107.452 112.655 128.735 137.023 142.803C161.391 156.871 198.252 158.4 219.356 146.216C240.459 134.032 237.812 112.75 213.444 98.6814Z" fill="url(#paint35_linear_2_2277)"/>
<path d="M211.564 174.746V209.711L269.123 176.479V141.515L240.344 153.446L211.564 174.746Z" fill="url(#paint36_linear_2_2277)"/>
<path d="M139.962 67.0889L82.2402 100.414L211.565 174.746L269.124 141.514L139.962 67.0889Z" fill="url(#paint37_linear_2_2277)"/>
<path d="M202.697 132.029L209.128 135.742C211.394 137.051 211.394 138.662 209.128 139.971C207.379 140.981 203.005 140.981 201.256 139.971L195.032 136.377C192.232 137.549 189.119 138.5 185.863 139.204C180.253 140.415 172.741 139.406 171.242 137.235L171.216 137.199C169.756 135.083 172.771 132.902 178.564 131.909C183.181 131.118 187.28 129.884 189.703 128.484C192.788 126.703 193.412 124.82 190.971 123.41C183.12 118.877 166.787 133.792 150.425 124.346C143.102 120.118 142.593 114.546 148.52 109.524L142.485 106.039C140.219 104.731 140.219 103.118 142.485 101.81C144.234 100.8 148.607 100.8 150.357 101.81L156.052 105.098C157.45 104.473 158.919 103.908 160.433 103.405C165.74 101.644 174.795 102.509 176.546 104.936C177.943 106.873 175.543 108.882 170.599 110.002C166.671 110.891 163.235 111.998 161.276 113.128C158.763 114.58 158.161 116.145 160.272 117.364C167.925 121.782 184.654 107.097 201.279 116.695C209.395 121.382 208.774 127.225 202.697 132.029Z" fill="white"/>
</g>
<defs>
<linearGradient id="paint0_linear_2_2277" x1="11.1309" y1="255.763" x2="133.012" y2="255.763" gradientUnits="userSpaceOnUse">
<stop offset="0.0022" stop-color="#236568"/>
<stop offset="0.8472" stop-color="#2F878A"/>
<stop offset="1" stop-color="#06DAAE"/>
</linearGradient>
<linearGradient id="paint1_linear_2_2277" x1="121.81" y1="271.858" x2="135.658" y2="271.858" gradientUnits="userSpaceOnUse">
<stop stop-color="#236568"/>
<stop offset="1" stop-color="#2F878A"/>
</linearGradient>
<linearGradient id="paint2_linear_2_2277" x1="121.81" y1="265.183" x2="135.658" y2="265.183" gradientUnits="userSpaceOnUse">
<stop stop-color="#236568"/>
<stop offset="1" stop-color="#2F878A"/>
</linearGradient>
<linearGradient id="paint3_linear_2_2277" x1="121.81" y1="258.581" x2="135.658" y2="258.581" gradientUnits="userSpaceOnUse">
<stop stop-color="#236568"/>
<stop offset="1" stop-color="#2F878A"/>
</linearGradient>
<linearGradient id="paint4_linear_2_2277" x1="121.81" y1="251.905" x2="135.658" y2="251.905" gradientUnits="userSpaceOnUse">
<stop stop-color="#236568"/>
<stop offset="1" stop-color="#2F878A"/>
</linearGradient>
<linearGradient id="paint5_linear_2_2277" x1="121.81" y1="245.08" x2="135.658" y2="245.08" gradientUnits="userSpaceOnUse">
<stop stop-color="#236568"/>
<stop offset="1" stop-color="#2F878A"/>
</linearGradient>
<linearGradient id="paint6_linear_2_2277" x1="-15.8023" y1="217.639" x2="163.278" y2="321.031" gradientUnits="userSpaceOnUse">
<stop stop-color="#1A4C4E"/>
<stop offset="1" stop-color="#1A4C4E" stop-opacity="0"/>
</linearGradient>
<linearGradient id="paint7_linear_2_2277" x1="76.1663" y1="151.235" x2="261.066" y2="257.988" gradientUnits="userSpaceOnUse">
<stop stop-color="#06DAAE"/>
<stop offset="1" stop-color="#9BF0DF"/>
</linearGradient>
<linearGradient id="paint8_linear_2_2277" x1="103.014" y1="166.735" x2="319.266" y2="291.589" gradientUnits="userSpaceOnUse">
<stop stop-color="#2F878A"/>
<stop offset="1" stop-color="#06DAAE"/>
</linearGradient>
<linearGradient id="paint9_linear_2_2277" x1="97.7679" y1="163.706" x2="234.466" y2="242.629" gradientUnits="userSpaceOnUse">
<stop stop-color="#2F878A"/>
<stop offset="1" stop-color="#06DAAE"/>
</linearGradient>
<linearGradient id="paint10_linear_2_2277" x1="228.879" y1="277.739" x2="228.879" y2="175.847" gradientUnits="userSpaceOnUse">
<stop stop-color="#FFA538"/>
<stop offset="1" stop-color="#FFC538"/>
</linearGradient>
<linearGradient id="paint11_linear_2_2277" x1="96.9466" y1="163.07" x2="168.075" y2="286.265" gradientUnits="userSpaceOnUse">
<stop stop-color="#FFC538"/>
<stop offset="1" stop-color="#F7E041"/>
</linearGradient>
<linearGradient id="paint12_linear_2_2277" x1="96.9466" y1="163.07" x2="168.075" y2="286.265" gradientUnits="userSpaceOnUse">
<stop stop-color="#FFC538"/>
<stop offset="1" stop-color="#F7E041"/>
</linearGradient>
<linearGradient id="paint13_linear_2_2277" x1="234.036" y1="228.135" x2="243.999" y2="245.391" gradientUnits="userSpaceOnUse">
<stop stop-color="#0D2627"/>
<stop offset="1" stop-color="#0D2627" stop-opacity="0"/>
</linearGradient>
<linearGradient id="paint14_linear_2_2277" x1="41.4711" y1="206.17" x2="188.91" y2="304.05" gradientUnits="userSpaceOnUse">
<stop stop-color="#1A4C4E"/>
<stop offset="1" stop-color="#1A4C4E" stop-opacity="0"/>
</linearGradient>
<linearGradient id="paint15_linear_2_2277" x1="40.7623" y1="210.557" x2="162.644" y2="210.557" gradientUnits="userSpaceOnUse">
<stop offset="0.0022" stop-color="#236568"/>
<stop offset="0.8472" stop-color="#2F878A"/>
<stop offset="1" stop-color="#06DAAE"/>
</linearGradient>
<linearGradient id="paint16_linear_2_2277" x1="151.443" y1="226.652" x2="165.29" y2="226.652" gradientUnits="userSpaceOnUse">
<stop stop-color="#236568"/>
<stop offset="1" stop-color="#2F878A"/>
</linearGradient>
<linearGradient id="paint17_linear_2_2277" x1="151.443" y1="219.976" x2="165.29" y2="219.976" gradientUnits="userSpaceOnUse">
<stop stop-color="#236568"/>
<stop offset="1" stop-color="#2F878A"/>
</linearGradient>
<linearGradient id="paint18_linear_2_2277" x1="151.443" y1="213.374" x2="165.29" y2="213.374" gradientUnits="userSpaceOnUse">
<stop stop-color="#236568"/>
<stop offset="1" stop-color="#2F878A"/>
</linearGradient>
<linearGradient id="paint19_linear_2_2277" x1="151.443" y1="206.697" x2="165.29" y2="206.697" gradientUnits="userSpaceOnUse">
<stop stop-color="#236568"/>
<stop offset="1" stop-color="#2F878A"/>
</linearGradient>
<linearGradient id="paint20_linear_2_2277" x1="151.443" y1="199.872" x2="165.29" y2="199.872" gradientUnits="userSpaceOnUse">
<stop stop-color="#236568"/>
<stop offset="1" stop-color="#2F878A"/>
</linearGradient>
<linearGradient id="paint21_linear_2_2277" x1="48.072" y1="203.334" x2="156.67" y2="266.034" gradientUnits="userSpaceOnUse">
<stop stop-color="#1A4C4E"/>
<stop offset="1" stop-color="#1A4C4E" stop-opacity="0"/>
</linearGradient>
<linearGradient id="paint22_linear_2_2277" x1="105.798" y1="106.029" x2="290.698" y2="212.781" gradientUnits="userSpaceOnUse">
<stop stop-color="#06DAAE"/>
<stop offset="1" stop-color="#9BF0DF"/>
</linearGradient>
<linearGradient id="paint23_linear_2_2277" x1="132.644" y1="121.529" x2="348.897" y2="246.382" gradientUnits="userSpaceOnUse">
<stop stop-color="#2F878A"/>
<stop offset="1" stop-color="#06DAAE"/>
</linearGradient>
<linearGradient id="paint24_linear_2_2277" x1="127.399" y1="118.5" x2="264.097" y2="197.423" gradientUnits="userSpaceOnUse">
<stop stop-color="#2F878A"/>
<stop offset="1" stop-color="#06DAAE"/>
</linearGradient>
<linearGradient id="paint25_linear_2_2277" x1="258.51" y1="232.531" x2="258.51" y2="130.64" gradientUnits="userSpaceOnUse">
<stop stop-color="#FFA538"/>
<stop offset="1" stop-color="#FFC538"/>
</linearGradient>
<linearGradient id="paint26_linear_2_2277" x1="126.577" y1="117.873" x2="197.706" y2="241.068" gradientUnits="userSpaceOnUse">
<stop stop-color="#FFC538"/>
<stop offset="1" stop-color="#F7E041"/>
</linearGradient>
<linearGradient id="paint27_linear_2_2277" x1="22.5957" y1="174.694" x2="144.477" y2="174.694" gradientUnits="userSpaceOnUse">
<stop offset="0.0022" stop-color="#236568"/>
<stop offset="0.8472" stop-color="#2F878A"/>
<stop offset="1" stop-color="#06DAAE"/>
</linearGradient>
<linearGradient id="paint28_linear_2_2277" x1="133.275" y1="190.789" x2="147.122" y2="190.789" gradientUnits="userSpaceOnUse">
<stop stop-color="#236568"/>
<stop offset="1" stop-color="#2F878A"/>
</linearGradient>
<linearGradient id="paint29_linear_2_2277" x1="133.275" y1="184.113" x2="147.122" y2="184.113" gradientUnits="userSpaceOnUse">
<stop stop-color="#236568"/>
<stop offset="1" stop-color="#2F878A"/>
</linearGradient>
<linearGradient id="paint30_linear_2_2277" x1="133.275" y1="177.511" x2="147.122" y2="177.511" gradientUnits="userSpaceOnUse">
<stop stop-color="#236568"/>
<stop offset="1" stop-color="#2F878A"/>
</linearGradient>
<linearGradient id="paint31_linear_2_2277" x1="133.275" y1="170.833" x2="147.122" y2="170.833" gradientUnits="userSpaceOnUse">
<stop stop-color="#236568"/>
<stop offset="1" stop-color="#2F878A"/>
</linearGradient>
<linearGradient id="paint32_linear_2_2277" x1="133.275" y1="164.01" x2="147.122" y2="164.01" gradientUnits="userSpaceOnUse">
<stop stop-color="#236568"/>
<stop offset="1" stop-color="#2F878A"/>
</linearGradient>
<linearGradient id="paint33_linear_2_2277" x1="87.633" y1="70.1653" x2="272.533" y2="176.917" gradientUnits="userSpaceOnUse">
<stop stop-color="#06DAAE"/>
<stop offset="1" stop-color="#9BF0DF"/>
</linearGradient>
<linearGradient id="paint34_linear_2_2277" x1="114.479" y1="85.6654" x2="330.731" y2="210.519" gradientUnits="userSpaceOnUse">
<stop stop-color="#2F878A"/>
<stop offset="1" stop-color="#06DAAE"/>
</linearGradient>
<linearGradient id="paint35_linear_2_2277" x1="109.233" y1="82.6364" x2="245.931" y2="161.559" gradientUnits="userSpaceOnUse">
<stop stop-color="#2F878A"/>
<stop offset="1" stop-color="#06DAAE"/>
</linearGradient>
<linearGradient id="paint36_linear_2_2277" x1="240.344" y1="196.669" x2="240.344" y2="94.7782" gradientUnits="userSpaceOnUse">
<stop stop-color="#FFA538"/>
<stop offset="1" stop-color="#FFC538"/>
</linearGradient>
<linearGradient id="paint37_linear_2_2277" x1="108.412" y1="82.0261" x2="179.54" y2="205.221" gradientUnits="userSpaceOnUse">
<stop stop-color="#FFC538"/>
<stop offset="1" stop-color="#F7E041"/>
</linearGradient>
<clipPath id="clip0_2_2277">
<rect width="358" height="358" fill="white"/>
</clipPath>
</defs>
</svg>
