<svg width="181" height="181" viewBox="0 0 181 181" fill="none" xmlns="http://www.w3.org/2000/svg">
<g clip-path="url(#clip0_2_2237)">
<path d="M65.417 175.392C65.2112 174.852 64.9336 174.076 64.605 173.128C63.941 171.212 63.0919 168.661 62.2525 166.104C61.414 163.549 60.5882 160.997 59.9719 159.084C59.6638 158.127 59.4082 157.33 59.2296 156.773L59.0226 156.126L58.9683 155.956L58.9544 155.912L58.9509 155.901L58.95 155.899L58.9498 155.898C58.9498 155.898 58.9498 155.898 57.0443 156.506L58.9498 155.898L58.0207 152.985L55.7243 155.003L55.7242 155.003L55.7241 155.003L55.7228 155.004L55.7167 155.01L55.6904 155.033L55.5838 155.126C55.4895 155.208 55.3495 155.329 55.1698 155.483C54.8104 155.791 54.2923 156.231 53.6619 156.754C52.3987 157.801 50.6956 159.174 48.9196 160.489C47.1284 161.815 45.3269 163.034 43.8543 163.811C43.1098 164.204 42.5397 164.434 42.1507 164.532C42.1045 164.544 42.0646 164.552 42.0307 164.559C17.9179 148.745 2 121.478 2 90.5C2 80.8827 3.53528 71.6253 6.36934 62.9607L6.36962 62.9599C7.15031 60.5694 8.03145 58.2265 9.00631 55.931L65.417 175.392ZM65.417 175.392C73.3682 177.74 81.7825 179 90.5 179C139.375 179 179 139.375 179 90.5C179 41.6245 139.375 2 90.5 2C61.6136 2 35.9578 15.8397 19.8026 37.2562C19.7945 37.2673 19.7849 37.2801 19.7741 37.2942C19.7719 37.2972 19.7695 37.3002 19.7671 37.3034C15.4662 43.0124 11.8415 49.2627 9.00662 55.9302L65.417 175.392ZM41.8727 164.579C41.8732 164.578 41.8812 164.578 41.8958 164.579C41.8796 164.58 41.8723 164.579 41.8727 164.579Z" fill="#F0C419" stroke="url(#paint0_linear_2_2237)" stroke-width="4"/>
<path d="M140.887 149.901L63.9757 177.048C55.8378 174.559 48.1877 170.95 41.2022 166.407L4.46844 62.3389L3.55283 59.7477C0.346443 50.6552 5.11537 40.6826 14.2043 37.4762L18.1954 36.0656L91.5641 10.1671C100.657 6.9607 110.626 11.7261 113.836 20.8185L151.538 127.626C154.748 136.719 149.979 146.691 140.887 149.901Z" fill="#F6F9F9"/>
<path d="M45.6459 165.007C46.4767 167.358 47.76 169.419 49.3649 171.13C46.5545 169.695 43.8324 168.115 41.2022 166.407L4.46844 62.3391L3.55283 59.7478C0.346443 50.6554 5.11537 40.6827 14.2043 37.4728L18.1954 36.0658L18.5949 35.9244C18.457 35.9739 18.3192 36.0234 18.1848 36.08C10.358 39.0601 5.87189 47.1167 7.16576 55.1486C7.32838 56.1702 7.58644 57.1919 7.94349 58.1994L45.6459 165.007Z" fill="#DDDAEC"/>
<path d="M27.3172 47.214C22.6999 45.0059 17.1671 46.9591 14.9594 51.5764C12.7513 56.1937 14.7045 61.7262 19.3217 63.9342L36.042 71.9301L44.0378 55.2098C46.2458 50.5926 44.2927 45.0597 39.6754 42.852C35.0581 40.6439 29.5253 42.5967 27.3172 47.214Z" fill="#87BFCA"/>
<path d="M127.776 140.161C132.393 142.369 137.926 140.416 140.134 135.799C142.342 131.182 140.388 125.649 135.771 123.441L119.051 115.445L111.055 132.165C108.847 136.783 110.8 142.316 115.418 144.523C120.035 146.731 125.568 144.778 127.776 140.161Z" fill="#87BFCA"/>
<path d="M72.9522 80.6718C65.8638 77.2823 57.3699 80.2804 53.9804 87.3688C50.5909 94.4571 53.5891 102.951 60.6774 106.341L86.3465 118.616L98.6217 92.9469C102.011 85.8586 99.013 77.3646 91.9247 73.9748C84.836 70.5853 76.3417 73.5834 72.9522 80.6718Z" fill="#87BFCA"/>
<path d="M154.131 16.9392H72.0942C62.4528 16.9392 54.6369 24.7551 54.6369 34.3965V147.664C54.6369 157.305 62.4528 165.121 72.0942 165.121H154.131C163.772 165.121 171.588 157.305 171.588 147.664V34.3965C171.588 24.7551 163.772 16.9392 154.131 16.9392Z" fill="#F6F9F9"/>
<path d="M76.7513 165.12H72.0955C62.454 165.12 54.6374 157.303 54.6374 147.662V34.3955C54.6374 24.7541 62.454 16.9375 72.0955 16.9375H76.7513C67.1098 16.9375 59.2932 24.7538 59.2932 34.3955V147.662C59.2932 157.304 67.1098 165.12 76.7513 165.12Z" fill="#DDDAEC"/>
<path d="M94.3222 35.4831L81.2167 22.3775L68.1115 35.4831C64.4926 39.102 64.4926 44.9693 68.1115 48.5882C70.7547 51.2315 74.5964 51.9417 77.8866 50.7238V54.4746H74.9043C73.065 54.4746 71.5738 55.9658 71.5738 57.8051C71.5738 59.6444 73.065 61.1356 74.9043 61.1356H87.5294C89.3688 61.1356 90.8599 59.6444 90.8599 57.8051C90.8599 55.9658 89.3688 54.4746 87.5294 54.4746H84.5475V50.7238C87.8373 51.9417 91.6793 51.2315 94.3222 48.5882C97.9412 44.9693 97.9412 39.102 94.3222 35.4831Z" fill="#204E57"/>
<path d="M132.286 81.8516L113.113 62.6783L93.9394 81.8516C88.6447 87.1462 88.6447 95.7302 93.9394 101.025C97.8065 104.892 103.427 105.931 108.24 104.149V109.637H103.877C101.186 109.637 99.0045 111.818 99.0045 114.509C99.0045 117.2 101.186 119.382 103.877 119.382H122.348C125.038 119.382 127.22 117.2 127.22 114.509C127.22 111.818 125.039 109.637 122.348 109.637H117.985V104.149C122.798 105.931 128.419 104.892 132.286 101.025C137.58 95.7302 137.58 87.1462 132.286 81.8516Z" fill="#204E57"/>
<path d="M131.903 145.777L145.009 158.882L158.114 145.777C161.733 142.158 161.733 136.291 158.114 132.672C155.471 130.028 151.629 129.318 148.339 130.536V126.785H151.321C153.16 126.785 154.651 125.294 154.651 123.455C154.651 121.615 153.16 120.124 151.321 120.124H138.696C136.857 120.124 135.365 121.615 135.365 123.455C135.365 125.294 136.857 126.785 138.696 126.785H141.678V130.536C138.388 129.318 134.546 130.028 131.903 132.672C128.284 136.29 128.284 142.158 131.903 145.777Z" fill="#204E57"/>
</g>
<defs>
<linearGradient id="paint0_linear_2_2237" x1="90.5" y1="0" x2="90.5" y2="181" gradientUnits="userSpaceOnUse">
<stop stop-color="white"/>
<stop offset="1" stop-color="white" stop-opacity="0"/>
</linearGradient>
<clipPath id="clip0_2_2237">
<rect width="181" height="181" fill="white"/>
</clipPath>
</defs>
</svg>
