<svg width="16" height="16" viewBox="0 0 16 16" fill="none" xmlns="http://www.w3.org/2000/svg">
<path fill-rule="evenodd" clip-rule="evenodd" d="M13.0666 3.66932C12.4417 2.93623 11.6649 2.34767 10.7901 1.94433C9.9153 1.54099 8.9633 1.33251 7.99998 1.33332C4.31838 1.33332 1.33331 4.31785 1.33331 7.99998C1.33331 10.0869 2.29278 11.9488 3.79411 13.1712C4.98142 14.1402 6.46743 14.6686 7.99998 14.6666C11.6821 14.6666 14.6666 11.6821 14.6666 7.99998C14.6666 6.34612 14.0634 4.83412 13.0666 3.66932Z" fill="white"/>
<path fill-rule="evenodd" clip-rule="evenodd" d="M1.65489 7.78875H1.33649C1.37915 6.41809 1.83515 5.15249 2.58449 4.11089V5.09329C3.14446 4.74649 3.79035 4.5634 4.44902 4.56475C4.59515 4.34982 5.42395 3.19409 6.52262 2.88155L6.47089 1.59089L6.47302 1.64422L6.03302 1.62822C6.33198 1.53599 6.6371 1.46506 6.94609 1.41595L6.54289 1.62449L6.54129 1.58822L6.59302 2.87249C6.80155 2.87142 7.76049 2.91409 8.81542 3.75142C9.11835 3.69222 10.6586 3.39835 11.3674 3.39622V2.24635C12.6776 3.01642 13.6874 4.20864 14.2314 5.62769L13.2341 5.54769C13.2213 5.77862 13.1141 7.53916 12.6677 8.07196C12.776 8.28209 13.2016 9.18449 13.209 10.4266L14.184 10.496L14.1514 10.5744L13.1813 10.496C13.0122 10.7184 12.0997 11.8832 11.2794 12.2336C11.2261 12.3936 10.8474 13.5136 10.633 13.8298L10.8565 14.0256C10.0032 14.4309 9.04955 14.6602 8.04369 14.6666C7.92538 14.6659 7.80712 14.662 7.68902 14.6549L7.70182 14.5477C6.62662 14.2474 5.79089 13.4058 5.67835 13.289C5.42929 13.2549 4.24369 13.0714 3.60369 12.561L3.38875 12.7541L3.34129 12.7013L3.55462 12.5104C3.42395 12.3413 2.76369 11.424 2.75035 10.1445C1.75035 9.16155 1.66182 8.03889 1.65489 7.78875ZM1.72582 7.78875C1.73222 8.03035 1.81809 9.12636 2.79569 10.0901L4.51195 9.54769C4.61115 9.19356 5.16795 7.23836 5.45755 6.84582C5.30662 6.62502 4.65062 5.62556 4.43355 4.63515C3.31782 4.62822 2.55089 5.20049 2.54342 5.20635L2.54129 5.20369C1.84795 6.22289 1.73489 7.78875 1.73489 7.78875H1.72582ZM7.76742 14.4917C8.11409 14.4432 9.88475 14.1808 10.5642 13.8048C10.7546 13.5461 11.1216 12.48 11.2021 12.241L9.33329 11.1232C8.86822 11.3605 6.80635 11.6581 6.38715 11.7168L5.74235 13.2528C5.89382 13.4085 6.72049 14.2176 7.76742 14.4917ZM5.52209 6.87836C5.24262 7.23036 4.66075 9.28102 4.57595 9.58182C4.75729 9.83035 5.66929 11.0645 6.38609 11.6458C6.81702 11.5845 8.86395 11.2864 9.30342 11.0586L10.2176 8.38129L8.22289 6.21222C7.95195 6.27622 5.83782 6.77382 5.52209 6.87836ZM8.27409 6.16369L10.265 8.32849L12.6112 8.02929C13.0656 7.49276 13.1632 5.54182 13.1642 5.52209L13.1781 5.52262C12.8656 4.62609 11.6261 3.63995 11.4021 3.46769C10.7274 3.45702 9.13809 3.76102 8.83142 3.82075C8.76849 4.13062 8.42075 5.83516 8.27409 6.16369Z" fill="#1A2226"/>
<path fill-rule="evenodd" clip-rule="evenodd" d="M11.1786 13.8565C8.20476 15.4709 4.54556 14.5883 2.60956 11.9221C9.33329 14.3915 14.656 6.99733 12.8997 3.76159C12.7578 3.50026 12.601 3.25226 12.4304 3.01813C13.0065 3.53109 13.4891 4.14034 13.8565 4.81866C15.6128 8.05386 14.4138 12.1003 11.1792 13.8565H11.1786Z" fill="black" fill-opacity="0.2"/>
</svg>
