<svg width="181" height="181" viewBox="0 0 181 181" fill="none" xmlns="http://www.w3.org/2000/svg">
<g clip-path="url(#clip0_2_2225)">
<path d="M178.964 90.3053C178.964 139.075 139.429 178.611 90.6588 178.611C41.8887 178.611 2.35352 139.075 2.35352 90.3053C2.35352 41.5352 41.8887 2 90.6588 2C139.429 2 178.964 41.5352 178.964 90.3053Z" fill="#27707E" stroke="url(#paint0_linear_2_2225)" stroke-width="4"/>
<path d="M123.279 94.7311L130.837 94.7311C132.539 94.7311 133.92 96.0527 133.92 97.6808C133.92 99.3103 132.539 100.632 130.837 100.632L123.279 100.632C121.027 100.632 119.202 102.379 119.202 104.533C119.202 106.687 121.027 108.434 123.279 108.434L161.269 108.434C163.522 108.434 165.346 106.687 165.346 104.533C165.346 102.379 163.522 100.632 161.269 100.632L150.628 100.632C148.925 100.632 147.544 99.3103 147.544 97.6808C147.544 96.0527 148.925 94.7311 150.628 94.7311L173.203 94.7311C175.456 94.7311 177.28 92.9843 177.28 90.83C177.28 88.6758 175.456 86.9289 173.203 86.9289L123.279 86.9289C121.027 86.9289 119.202 88.6758 119.202 90.83C119.202 92.9843 121.028 94.7311 123.279 94.7311Z" fill="white"/>
<path d="M58.4309 79.0466L50.8731 79.0466C49.1704 79.0466 47.7909 77.7265 47.7909 76.097C47.7909 74.4689 49.1704 73.1474 50.8731 73.1474L58.4309 73.1474C60.6832 73.1474 62.5087 71.4005 62.5087 69.2463C62.5087 67.0906 60.6832 65.3452 58.4309 65.3452L20.4418 65.3452C18.1895 65.3452 16.3639 67.0906 16.3639 69.2463C16.3639 71.4005 18.1895 73.1474 20.4418 73.1474L31.0831 73.1474C32.7858 73.1474 34.1654 74.4689 34.1654 76.097C34.1654 77.7265 32.7858 79.0466 31.0831 79.0466L8.50785 79.0466C6.25557 79.0466 4.42999 80.7935 4.42999 82.9491C4.42999 85.1034 6.25557 86.8502 8.50785 86.8502L58.4309 86.8502C60.6832 86.8502 62.5087 85.1034 62.5087 82.9491C62.5087 80.7935 60.6832 79.0466 58.4309 79.0466Z" fill="white"/>
<path d="M171.419 130.711C162.899 148.077 148.934 162.288 131.751 171.121C119.108 177.618 104.976 181 90.7665 181C74.288 181 57.8909 176.421 43.8525 167.782C29.3887 158.902 17.6329 146.032 10.1138 130.711L171.419 130.711Z" fill="#F0C419"/>
<path d="M154.981 86.8047C154.981 122.269 126.231 151.019 90.7665 151.019C55.3017 151.019 26.5523 122.269 26.5523 86.8047C26.5523 51.3399 55.3017 22.5905 90.7665 22.5905C126.231 22.5905 154.981 51.3399 154.981 86.8047Z" fill="#E1EFFB"/>
<path d="M154.981 86.806C154.981 100.51 150.686 113.212 143.37 123.639C136.253 133.788 126.274 141.779 114.608 146.448C107.237 149.398 99.1942 151.019 90.7679 151.019C88.0254 151.019 85.327 150.849 82.6771 150.513C87.2217 149.817 91.6088 148.642 95.7917 147.046C107.948 142.394 118.335 134.163 125.66 123.639C132.905 113.227 137.16 100.574 137.16 86.9276L137.16 86.7619C137.118 72.0191 132.121 58.4392 123.743 47.6072C116.452 38.1783 106.599 30.8249 95.2324 26.6048C90.9667 25.0195 86.4884 23.8734 81.8554 23.2243C84.4032 22.8625 87.0007 22.6526 89.6369 22.6015C90.0125 22.5946 90.3881 22.5905 90.7679 22.5905L90.8894 22.5905C91.0924 22.5905 91.2954 22.5905 91.4984 22.5946C91.9776 22.5974 92.4526 22.6084 92.9318 22.6236C99.9344 22.8598 106.658 24.2117 112.921 26.5164C124.366 30.7213 134.281 38.0927 141.601 47.5741C149.816 58.1961 154.771 71.4654 154.974 85.885C154.977 86.1915 154.981 86.4967 154.981 86.806Z" fill="#CEDBE6"/>
<path d="M108.506 108.462L116.235 84.6739C116.276 84.5469 116.363 84.4392 116.481 84.3715L136.514 72.8698C136.699 72.7635 136.929 72.7759 137.102 72.9016L154.089 85.2415C154.45 85.5052 154.963 85.2387 154.949 84.7913C154.529 71.163 149.864 58.6063 142.228 48.3971C141.965 48.0478 141.416 48.143 141.281 48.5587L135.276 67.0437C135.235 67.1707 135.148 67.2785 135.031 67.3461L114.971 78.863C114.786 78.9693 114.556 78.9569 114.383 78.8312L93.9481 63.9836C93.8073 63.8828 93.7244 63.7198 93.7244 63.5458L93.7244 40.733C93.7244 40.559 93.8073 40.3975 93.9481 40.2953L112.091 27.1185C112.443 26.8631 112.367 26.3134 111.955 26.1698C105.323 23.8513 98.1917 22.5905 90.7679 22.5905C83.4048 22.5905 76.3331 23.8292 69.7461 26.1091C69.3346 26.2513 69.2573 26.8023 69.6094 27.0578L87.9729 40.3975C88.1137 40.4996 88.1966 40.6626 88.1966 40.8352L88.1966 63.5458C88.1966 63.7198 88.1137 63.8814 87.9729 63.9836L67.393 78.9362C67.2342 79.0522 67.0243 79.0715 66.8462 78.9887L46.3326 69.4065C46.1973 69.3429 46.0937 69.2256 46.0481 69.0833L39.6434 49.3803C39.5067 48.9619 38.9488 48.8694 38.6906 49.2271C31.0527 59.7911 26.5523 72.7731 26.5523 86.8061C26.5523 87.2424 27.0467 87.4951 27.4002 87.2383L44.3786 74.9025C44.5388 74.7879 44.7473 74.7672 44.9255 74.8514L65.4266 84.4267C65.5633 84.4902 65.6669 84.6076 65.7124 84.7499L73.6583 109.205C73.7273 109.416 73.6596 109.646 73.4884 109.789L56.9132 123.515C56.8166 123.595 56.6937 123.639 56.568 123.639L39.214 123.639C38.7735 123.639 38.5152 124.139 38.7735 124.496C45.8479 134.242 55.6013 141.923 66.9511 146.455C67.3751 146.623 67.8032 146.216 67.6623 145.782L61.6332 127.228C61.5642 127.018 61.6318 126.786 61.8017 126.646L79.1723 112.261C79.2689 112.18 79.3918 112.136 79.5175 112.136L103.602 112.136C103.732 112.136 103.859 112.183 103.957 112.269L120.648 126.791C120.811 126.933 120.875 127.159 120.807 127.365L114.97 145.336C114.828 145.775 115.265 146.183 115.689 146.005C126.564 141.419 135.912 133.927 142.758 124.497C143.016 124.141 142.757 123.639 142.318 123.639L125.653 123.639C125.521 123.639 125.396 123.592 125.298 123.507L108.665 109.037C108.502 108.895 108.438 108.669 108.506 108.462Z" fill="#3A4966"/>
<path d="M112.925 26.5164L105.81 31.6838C102.471 29.6829 98.9319 27.9788 95.2352 26.6048C90.9709 25.0195 86.4925 23.8734 81.8596 23.2243C84.0746 22.9109 86.3268 22.712 88.6081 22.6278C88.6233 22.6278 88.6371 22.6236 88.6523 22.6278C88.981 22.6167 89.3124 22.6084 89.6397 22.6015C90.0167 22.5946 90.3923 22.5905 90.772 22.5905C91.2733 22.5905 91.7704 22.5974 92.2689 22.6057C92.7219 22.6167 93.1721 22.6347 93.625 22.654C93.7023 22.6568 93.7797 22.6609 93.857 22.6651C94.1415 22.6789 94.4204 22.6941 94.7049 22.7092C94.7449 22.712 94.7864 22.712 94.8223 22.7161C95.1799 22.7424 95.5417 22.7645 95.8994 22.7935C96.7252 22.8556 97.5427 22.9371 98.3616 23.0365C98.7524 23.0849 99.1432 23.1332 99.5298 23.1843C99.9165 23.2354 100.3 23.2906 100.687 23.3541C100.72 23.3569 100.753 23.361 100.786 23.3679C101.192 23.4315 101.597 23.5005 101.999 23.5709C102.202 23.6082 102.405 23.6455 102.604 23.6814C102.807 23.7187 103.006 23.756 103.204 23.796C103.418 23.8361 103.635 23.8803 103.849 23.9245C104.052 23.9659 104.255 24.0101 104.458 24.0543C104.668 24.0984 104.878 24.1468 105.088 24.1937C105.298 24.2421 105.508 24.2904 105.718 24.3415C105.929 24.3898 106.139 24.4409 106.345 24.492C106.78 24.6039 107.215 24.7143 107.645 24.8317C107.996 24.927 108.347 25.0264 108.692 25.1272C109.043 25.2294 109.39 25.333 109.736 25.4393C110.012 25.5249 110.286 25.6092 110.554 25.6976C110.953 25.8274 111.35 25.9599 111.745 26.0966C112.139 26.232 112.534 26.3714 112.925 26.5164Z" fill="#334059"/>
<path d="M143.374 123.641C136.257 133.788 126.278 141.779 114.612 146.449L119.6 131.096C121.8 128.768 123.827 126.276 125.662 123.641L143.374 123.641Z" fill="#334059"/>
<path d="M154.974 85.8891L136.82 72.7L135.718 73.3338C135.312 71.4544 134.826 69.6081 134.259 67.7949L135.213 67.2453L141.601 47.5769C149.816 58.2003 154.771 71.4696 154.974 85.8891Z" fill="#334059"/>
</g>
<defs>
<linearGradient id="paint0_linear_2_2225" x1="90.6588" y1="-9.06566e-08" x2="90.6588" y2="180.611" gradientUnits="userSpaceOnUse">
<stop stop-color="white"/>
<stop offset="1" stop-color="white" stop-opacity="0"/>
</linearGradient>
<clipPath id="clip0_2_2225">
<rect width="181" height="181" fill="white"/>
</clipPath>
</defs>
</svg>
