<svg width="393" height="490" viewBox="0 0 393 490" fill="none" xmlns="http://www.w3.org/2000/svg">
<g clip-path="url(#clip0_2_2155)">
<mask id="mask0_2_2155" style="mask-type:luminance" maskUnits="userSpaceOnUse" x="166" y="200" width="221" height="196">
<path d="M242.724 261.537C227.328 262.474 212.756 252.759 204.744 236.213C199.503 225.39 197.618 212.777 199.106 200.659L167.003 314.799C164.125 333.145 182.479 359.322 204.818 366.298C204.818 366.298 228.465 376.006 275.757 395.42L386.364 323.297C386.364 323.297 338.484 302.711 242.723 261.539" fill="white"/>
</mask>
<g mask="url(#mask0_2_2155)">
<path d="M306.723 130.485L128.434 246.742L208.073 439.553L386.362 323.295L306.723 130.485Z" fill="url(#paint0_linear_2_2155)"/>
</g>
<mask id="mask1_2_2155" style="mask-type:luminance" maskUnits="userSpaceOnUse" x="0" y="41" width="307" height="221">
<path d="M204.738 236.215C212.75 252.76 227.322 262.475 242.718 261.538C273.64 249.905 297.178 218.243 304.306 178.686C311.432 139.13 301.046 97.8162 277.125 70.5842C253.205 43.3513 219.462 34.4229 188.832 47.2239L0.264709 170.184L124.334 217.505L210.091 161.585L204.295 182.195L199.101 200.662C197.612 212.78 199.497 225.393 204.739 236.216" fill="white"/>
</mask>
<g mask="url(#mask1_2_2155)">
<path d="M260.805 0.000882667L0.297363 169.871L84.2463 373.115L344.754 203.245L260.805 0.000882667Z" fill="url(#paint1_linear_2_2155)"/>
</g>
<path fill-rule="evenodd" clip-rule="evenodd" d="M0.264709 170.184C188.466 82.8709 286.399 96.5001 294.063 211.072C298.731 201.154 302.221 190.258 304.306 178.686C311.432 139.13 301.046 97.8162 277.125 70.5842C253.205 43.3513 219.462 34.4229 188.832 47.2239L0.264709 170.184Z" fill="#1E4D56"/>
<path fill-rule="evenodd" clip-rule="evenodd" d="M346.2 349.483C260.313 346.88 205.931 316.295 183.054 257.727L167.001 314.796C164.123 333.142 182.478 359.32 204.817 366.295C204.817 366.295 228.463 376.003 275.756 395.418L346.199 349.484" fill="#1E4D56"/>
</g>
<defs>
<linearGradient id="paint0_linear_2_2155" x1="344.045" y1="273.685" x2="140.32" y2="290.566" gradientUnits="userSpaceOnUse">
<stop stop-color="#1E4D56"/>
<stop offset="1" stop-color="#F0C419"/>
</linearGradient>
<linearGradient id="paint1_linear_2_2155" x1="285.613" y1="191.376" x2="4.7066" y2="183.795" gradientUnits="userSpaceOnUse">
<stop stop-color="#29474D"/>
<stop offset="1" stop-color="#FCCC00"/>
</linearGradient>
<clipPath id="clip0_2_2155">
<rect width="310.999" height="345.102" fill="white" transform="matrix(0.837649 -0.546208 0.381762 0.924261 0.264832 170.184)"/>
</clipPath>
</defs>
</svg>
