<svg width="24" height="24" viewBox="0 0 24 24" fill="none" xmlns="http://www.w3.org/2000/svg">
<g id="warning-sign">
<path id="&#238;&#164;&#167;" d="M5.56738 18.374C5.1377 18.374 4.7666 18.2227 4.4541 17.9199C4.15137 17.6074 4 17.2363 4 16.8066C4 16.6602 4.01953 16.5186 4.05859 16.3818C4.09766 16.2451 4.14648 16.123 4.20508 16.0156L10.1377 5.77637C10.2744 5.54199 10.46 5.35645 10.6943 5.21973C10.9385 5.07324 11.207 5 11.5 5C11.793 5 12.0566 5.07324 12.291 5.21973C12.5352 5.35645 12.7256 5.54199 12.8623 5.77637L18.7949 16.0156L18.7803 16.001C18.8486 16.1182 18.9023 16.2451 18.9414 16.3818C18.9805 16.5186 19 16.6602 19 16.8066C19 17.2363 18.8438 17.6074 18.5312 17.9199C18.2285 18.2227 17.8623 18.374 17.4326 18.374H5.56738ZM11.5 12.8662C11.7148 12.8662 11.9004 12.7881 12.0566 12.6318C12.2129 12.4756 12.291 12.29 12.291 12.0752V10.5078C12.291 10.2832 12.2129 10.0977 12.0566 9.95117C11.9004 9.79492 11.7148 9.7168 11.5 9.7168C11.2852 9.7168 11.0996 9.79492 10.9434 9.95117C10.7871 10.0977 10.709 10.2832 10.709 10.5078V12.0752C10.709 12.29 10.7871 12.4756 10.9434 12.6318C11.0996 12.7881 11.2852 12.8662 11.5 12.8662ZM12.291 16.0156V14.4336H10.709V16.0156H12.291Z" fill="#AA7F00"/>
</g>
</svg>
